<?xml version="1.0" standalone="no"?>
<!DOCTYPE svg PUBLIC "-//W3C//DTD SVG 20010904//EN"
 "http://www.w3.org/TR/2001/REC-SVG-20010904/DTD/svg10.dtd">
<svg version="1.0" xmlns="http://www.w3.org/2000/svg"
 width="788.000000pt" height="167.000000pt" viewBox="0 0 788.000000 167.000000"
 preserveAspectRatio="xMidYMid meet">

<g transform="translate(0.000000,167.000000) scale(0.100000,-0.100000)"
fill="#000000" stroke="none">
<path d="M648 1650 c-183 -33 -375 -149 -483 -291 -67 -89 -130 -227 -151
-329 -34 -168 -5 -364 77 -522 86 -164 283 -352 442 -423 117 -51 164 -60 322
-60 130 0 160 3 225 24 289 90 500 327 551 616 17 97 7 272 -21 360 -85 272
-345 529 -610 605 -84 24 -272 35 -352 20z m312 -24 c91 -24 162 -54 220 -92
30 -20 46 -32 35 -28 -11 4 -49 17 -83 31 -367 137 -783 -20 -964 -363 -110
-209 -125 -431 -44 -647 13 -34 26 -71 30 -82 l8 -20 -17 20 c-28 33 -92 175
-110 244 -86 333 80 705 384 865 83 43 178 75 256 86 77 11 215 4 285 -14z
m17 -230 c187 -40 304 -133 369 -295 66 -164 56 -355 -28 -514 -43 -81 -164
-202 -245 -245 -126 -66 -300 -90 -428 -57 -90 23 -198 80 -249 131 -83 82
-146 248 -146 384 0 153 71 323 180 430 86 85 219 154 330 173 56 9 153 6 217
-7z m429 -340 c46 -94 57 -161 51 -286 -6 -127 -29 -200 -96 -303 -98 -149
-256 -247 -434 -266 -87 -9 -201 3 -274 31 -57 21 -157 77 -151 84 2 2 31 -8
64 -21 112 -45 285 -49 409 -9 92 29 168 77 245 154 83 83 126 155 160 268 31
102 25 274 -12 375 -33 88 -9 71 38 -27z"/>
<path d="M1990 820 c0 -473 3 -720 10 -720 7 0 10 247 10 720 0 473 -3 720
-10 720 -7 0 -10 -247 -10 -720z"/>
<path d="M4780 1260 l0 -60 45 0 45 0 0 60 0 60 -45 0 -45 0 0 -60z"/>
<path d="M2570 1296 c0 -2 87 -210 194 -463 l194 -458 39 -3 39 -3 93 218 c51
120 97 222 102 227 5 5 13 -3 19 -20 6 -16 50 -118 97 -226 l86 -198 37 0 c21
0 40 6 43 12 3 7 89 211 192 453 103 242 189 446 192 453 4 9 -9 12 -44 12
l-49 0 -164 -402 c-89 -222 -166 -406 -169 -410 -3 -4 -46 87 -94 201 l-89
208 80 196 81 197 -43 0 -42 0 -61 -152 c-33 -84 -64 -153 -69 -155 -5 -2 -36
66 -69 150 l-61 152 -42 3 c-23 2 -42 1 -42 -1 0 -3 34 -87 76 -188 41 -101
76 -191 77 -199 1 -19 -163 -410 -173 -410 -3 0 -81 181 -171 402 l-166 403
-46 3 c-26 2 -47 1 -47 -2z"/>
<path d="M5640 834 l0 -465 43 3 42 3 3 218 2 217 275 0 275 0 0 -221 0 -220
43 3 42 3 3 463 2 462 -45 0 -45 0 0 -205 0 -205 -275 0 -275 0 0 205 0 205
-45 0 -45 0 0 -466z"/>
<path d="M6774 1060 c-53 -8 -166 -54 -184 -75 -7 -9 -7 -20 1 -37 l11 -25 69
35 c179 92 333 29 346 -143 3 -36 2 -65 -2 -65 -4 0 -47 7 -96 16 -263 48
-451 -95 -366 -279 31 -68 80 -103 164 -118 97 -17 223 24 281 91 23 28 32 25
32 -9 0 -42 29 -72 70 -74 32 -2 35 1 38 28 2 20 -4 39 -18 54 -19 22 -20 37
-20 211 0 202 -7 244 -55 306 -49 64 -163 99 -271 84z m214 -360 c31 -12 32
-13 32 -74 0 -78 -24 -117 -96 -158 -92 -51 -198 -50 -259 3 -85 75 -59 194
52 235 45 17 219 13 271 -6z"/>
<path d="M7602 1060 c-59 -13 -137 -57 -178 -102 -18 -21 -36 -38 -39 -38 -2
0 -5 30 -7 68 l-3 67 -37 3 -38 3 0 -340 0 -341 45 0 45 0 0 218 0 219 31 46
c70 106 214 156 295 102 54 -35 59 -59 62 -332 l3 -253 46 0 45 0 -4 253 c-4
270 -13 322 -62 375 -44 49 -122 68 -204 52z"/>
<path d="M4220 1051 c-84 -27 -174 -101 -210 -172 -11 -20 -24 -66 -31 -101
-29 -160 50 -318 194 -384 52 -24 75 -29 143 -29 73 0 89 4 150 35 74 38 148
117 122 130 -41 22 -63 19 -83 -13 -31 -48 -115 -87 -186 -87 -71 0 -122 19
-167 63 -39 37 -78 109 -83 152 l-4 30 288 3 c233 2 289 5 293 16 9 24 -16
138 -42 188 -31 61 -91 120 -152 150 -50 24 -182 35 -232 19z m198 -78 c18 -9
47 -30 64 -47 35 -34 78 -119 78 -153 l0 -23 -251 0 -251 0 7 33 c21 97 80
168 167 198 60 22 130 18 186 -8z"/>
<path d="M4780 710 l0 -340 45 0 45 0 0 340 0 340 -45 0 -45 0 0 -340z"/>
<path d="M5050 730 l0 -40 190 0 190 0 0 40 0 40 -190 0 -190 0 0 -40z"/>
</g>
</svg>
